# xmcd
#
# Track frame offsets:
#	150
#	13399
#	33363
#	64531
#	81789
#	95766
#	110926
#	125202
#	149546
#	162053
#	176386
#
# Disc length: 2536 seconds
#
# Revision: 1
# Processed by: cddbd v1.5.2PL0 Copyright (c) Steve Scherf et al.
# Submitted via: audiograbber 1.83.01
#
DISCID=9b09e60b
DTITLE=hookerman - monkey zoo
DYEAR=2009
DGENRE=blues - Jazz
TTITLE0=spider on banana
TTITLE1=non-swimmer in the desert
TTITLE2=monkey zoo
TTITLE3=something special
TTITLE4=now it goes around the sausage
TTITLE5=diggin' a hole
TTITLE6=do you really?
TTITLE7=dance along
TTITLE8=violation
TTITLE9=good things overtake us
TTITLE10=Darling you
EXTD=Tejo Verstappen - Hookerman
EXTT0=
EXTT1=
EXTT2=
EXTT3=
EXTT4=
EXTT5=
EXTT6=
EXTT7=
EXTT8=
EXTT9=
EXTT10=
PLAYORDER=
